<svg width="204" height="77" viewBox="0 0 204 77" fill="none" xmlns="http://www.w3.org/2000/svg">
<rect width="204" height="77" rx="38.5" fill="white"/>
<path d="M37.6933 36.8H29.1973V28.4H24.0613V36.8H15.5653V41.6H24.0613V50H29.1973V41.6H37.6933V36.8ZM40.2043 22.4V27.632H47.3083V56H53.5483V22.4H40.2043ZM74.2296 56.48C82.2456 56.48 88.2936 50.24 88.2936 39.2C88.2936 28.16 82.2456 21.92 74.2296 21.92C66.2616 21.92 60.2136 28.16 60.2136 39.2C60.2136 50.24 66.2616 56.48 74.2296 56.48ZM74.2296 51.056C69.6696 51.056 66.5016 47.312 66.5016 39.2C66.5016 31.088 69.6696 27.344 74.2296 27.344C78.8376 27.344 82.0056 31.088 82.0056 39.2C82.0056 47.312 78.8376 51.056 74.2296 51.056ZM106.526 56.48C114.542 56.48 120.59 50.24 120.59 39.2C120.59 28.16 114.542 21.92 106.526 21.92C98.5584 21.92 92.5104 28.16 92.5104 39.2C92.5104 50.24 98.5584 56.48 106.526 56.48ZM106.526 51.056C101.966 51.056 98.7984 47.312 98.7984 39.2C98.7984 31.088 101.966 27.344 106.526 27.344C111.134 27.344 114.302 31.088 114.302 39.2C114.302 47.312 111.134 51.056 106.526 51.056ZM138.823 56.48C146.839 56.48 152.887 50.24 152.887 39.2C152.887 28.16 146.839 21.92 138.823 21.92C130.855 21.92 124.807 28.16 124.807 39.2C124.807 50.24 130.855 56.48 138.823 56.48ZM138.823 51.056C134.263 51.056 131.095 47.312 131.095 39.2C131.095 31.088 134.263 27.344 138.823 27.344C143.431 27.344 146.599 31.088 146.599 39.2C146.599 47.312 143.431 51.056 138.823 51.056ZM175.056 44.912C183.888 44.912 189.312 41.072 189.312 33.68C189.312 26.24 183.888 22.4 175.056 22.4H161.232V47.648H156.432V51.008H161.232V56H167.472V51.008H178.032V47.648H167.472V44.912H175.056ZM183.024 33.728C183.024 37.616 180.144 39.872 175.008 39.872H167.472V27.68H175.008C180.144 27.68 183.024 29.792 183.024 33.728Z" fill="#2B64F8"/>
</svg>
