<svg width="135" height="77" viewBox="0 0 135 77" fill="none" xmlns="http://www.w3.org/2000/svg">
<rect width="135" height="77" rx="38.5" fill="white"/>
<path d="M37.623 36.8H29.127V28.4H23.991V36.8H15.495V41.6H23.991V50H29.127V41.6H37.623V36.8ZM40.134 22.4V27.632H47.238V56H53.478V22.4H40.134ZM70.6553 35.408H67.4393L68.1593 27.632H82.6073V22.4H62.8793L61.1513 40.688H69.2633C76.2233 40.688 78.2873 42.704 78.2873 45.92C78.2873 49.088 75.6473 51.056 71.1833 51.056C67.3913 51.056 63.7433 49.76 61.2953 47.744L58.6553 52.592C61.7273 55.04 66.5273 56.48 71.2793 56.48C80.3033 56.48 84.5753 51.584 84.5753 45.68C84.5753 39.728 80.5913 35.408 70.6553 35.408ZM106.127 44.912C114.959 44.912 120.383 41.072 120.383 33.68C120.383 26.24 114.959 22.4 106.127 22.4H92.3025V47.648H87.5025V51.008H92.3025V56H98.5425V51.008H109.103V47.648H98.5425V44.912H106.127ZM114.095 33.728C114.095 37.616 111.215 39.872 106.079 39.872H98.5425V27.68H106.079C111.215 27.68 114.095 29.792 114.095 33.728Z" fill="#7E828C"/>
</svg>
