<svg width="214" height="77" viewBox="0 0 214 77" fill="none" xmlns="http://www.w3.org/2000/svg">
<rect width="214" height="77" rx="38.5" fill="white"/>
<path d="M37.248 36.8H28.752V28.4H23.616V36.8H15.12V41.6H23.616V50H28.752V41.6H37.248V36.8ZM52.9365 35.408H49.7205L50.4405 27.632H64.8885V22.4H45.1605L43.4325 40.688H51.5445C58.5045 40.688 60.5685 42.704 60.5685 45.92C60.5685 49.088 57.9285 51.056 53.4645 51.056C49.6725 51.056 46.0245 49.76 43.5765 47.744L40.9365 52.592C44.0085 55.04 48.8085 56.48 53.5605 56.48C62.5845 56.48 66.8565 51.584 66.8565 45.68C66.8565 39.728 62.8725 35.408 52.9365 35.408ZM84.4718 56.48C92.4878 56.48 98.5358 50.24 98.5358 39.2C98.5358 28.16 92.4878 21.92 84.4718 21.92C76.5038 21.92 70.4558 28.16 70.4558 39.2C70.4558 50.24 76.5038 56.48 84.4718 56.48ZM84.4718 51.056C79.9118 51.056 76.7438 47.312 76.7438 39.2C76.7438 31.088 79.9118 27.344 84.4718 27.344C89.0798 27.344 92.2478 31.088 92.2478 39.2C92.2478 47.312 89.0798 51.056 84.4718 51.056ZM116.769 56.48C124.785 56.48 130.833 50.24 130.833 39.2C130.833 28.16 124.785 21.92 116.769 21.92C108.801 21.92 102.753 28.16 102.753 39.2C102.753 50.24 108.801 56.48 116.769 56.48ZM116.769 51.056C112.209 51.056 109.041 47.312 109.041 39.2C109.041 31.088 112.209 27.344 116.769 27.344C121.377 27.344 124.545 31.088 124.545 39.2C124.545 47.312 121.377 51.056 116.769 51.056ZM149.066 56.48C157.082 56.48 163.13 50.24 163.13 39.2C163.13 28.16 157.082 21.92 149.066 21.92C141.098 21.92 135.05 28.16 135.05 39.2C135.05 50.24 141.098 56.48 149.066 56.48ZM149.066 51.056C144.506 51.056 141.338 47.312 141.338 39.2C141.338 31.088 144.506 27.344 149.066 27.344C153.674 27.344 156.842 31.088 156.842 39.2C156.842 47.312 153.674 51.056 149.066 51.056ZM185.298 44.912C194.13 44.912 199.554 41.072 199.554 33.68C199.554 26.24 194.13 22.4 185.298 22.4H171.474V47.648H166.674V51.008H171.474V56H177.714V51.008H188.274V47.648H177.714V44.912H185.298ZM193.266 33.728C193.266 37.616 190.386 39.872 185.25 39.872H177.714V27.68H185.25C190.386 27.68 193.266 29.792 193.266 33.728Z" fill="#4C23DF"/>
</svg>
