<svg width="202" height="60" viewBox="0 0 202 60" fill="none" xmlns="http://www.w3.org/2000/svg">
<rect width="202" height="60" rx="12" fill="white"/>
<path fill-rule="evenodd" clip-rule="evenodd" d="M64.0038 28.3516C64.0038 23.3059 68.2449 19.1978 73.2906 19.1978C76.0801 19.1978 78.0648 20.2931 79.5626 21.7196L77.7992 23.483C76.7288 22.4781 75.2773 21.6985 73.2887 21.6985C69.604 21.6985 66.724 24.6651 66.724 28.3497C66.724 32.0344 69.604 35.0048 73.2867 35.0048C75.6758 35.0048 77.0349 34.0461 77.907 33.1721C78.6212 32.4579 79.089 31.4318 79.27 30.0246H73.2906V27.5296H81.7072C81.7957 27.9763 81.8419 28.5114 81.8419 29.0909C81.8419 30.964 81.3279 33.2876 79.6742 34.9413C78.0648 36.6161 76.0127 37.5094 73.2887 37.5094C68.241 37.5094 64 33.4051 64 28.3555L64.0038 28.3516ZM88.6452 25.7181C85.386 25.7181 82.7255 28.1976 82.7255 31.6109C82.7255 35.0068 85.3841 37.5036 88.6452 37.5036C91.9064 37.5036 94.5611 35.0029 94.5611 31.6089C94.5611 28.1957 91.9045 25.7162 88.6452 25.7181ZM88.6452 35.1858C86.8607 35.1858 85.3187 33.7131 85.3187 31.6128C85.3187 29.4913 86.8587 28.0398 88.6452 28.0398C90.4298 28.0398 91.9699 29.4894 91.9699 31.6128C91.9699 33.7112 90.4317 35.1858 88.6452 35.1858ZM101.553 25.7181C98.2939 25.7181 95.6372 28.1976 95.6372 31.6109C95.6372 35.0068 98.2939 37.5036 101.553 37.5036C104.812 37.5036 107.469 35.0029 107.469 31.6089C107.469 28.1957 104.814 25.7162 101.553 25.7181ZM101.553 35.1858C99.7685 35.1858 98.2265 33.7131 98.2265 31.6128C98.2265 29.4913 99.7666 28.0398 101.553 28.0398C103.338 28.0398 104.88 29.4894 104.88 31.6128C104.88 33.7112 103.338 35.1858 101.553 35.1858ZM117.395 26.0762V27.0349H117.306C116.727 26.3399 115.61 25.7162 114.205 25.7162C111.258 25.7162 108.553 28.3074 108.553 31.6359C108.553 34.9374 111.256 37.5075 114.205 37.5075C115.61 37.5075 116.727 36.8837 117.306 36.1695H117.395V37.0166C117.395 39.2709 116.19 40.4779 114.247 40.4779C112.661 40.4779 111.679 39.3382 111.277 38.3815L109.021 39.319C109.667 40.8803 111.388 42.8015 114.245 42.8015C117.279 42.8015 119.847 41.0131 119.847 36.6604V26.0742L117.395 26.0762ZM114.426 35.1858C112.642 35.1858 111.142 33.6881 111.142 31.6359C111.142 29.5606 112.64 28.0417 114.426 28.0417C116.19 28.0417 117.574 29.5587 117.574 31.6359C117.576 33.6881 116.192 35.1858 114.426 35.1858ZM121.636 19.8234H124.227V37.1494H121.636V19.8234ZM131.329 35.1858C130.012 35.1858 129.073 34.5813 128.474 33.4012L136.355 30.1382L136.084 29.4682C135.595 28.1534 134.097 25.7181 131.038 25.7181C128.002 25.7181 125.478 28.1072 125.478 31.6128C125.478 34.9143 127.979 37.5055 131.329 37.5055C134.032 37.5055 135.595 35.8557 136.242 34.8932L134.232 33.5552C133.56 34.5389 132.644 35.1877 131.329 35.1858ZM131.127 27.9955C132.153 27.9955 133.023 28.5095 133.314 29.2449L128.043 31.4337C127.977 29.1563 129.808 27.9955 131.127 27.9955Z" fill="black"/>
<path fill-rule="evenodd" clip-rule="evenodd" d="M147.724 19.8232H141.529V37.1492H144.115V30.5865H147.726C150.593 30.5865 153.411 28.5113 153.411 25.2039C153.411 21.9024 150.595 19.8252 147.73 19.8252L147.724 19.8232ZM147.792 28.1744H144.115V22.2335H147.792C149.724 22.2335 150.826 23.8371 150.826 25.2039C150.826 26.5476 149.724 28.1744 147.792 28.1744ZM157.421 37.1492V19.8232H154.836V37.1492H157.421ZM169.035 37.1184V30.4768C169.035 27.4005 166.737 25.6852 163.77 25.6852C161.901 25.6852 159.962 26.5111 159.159 28.338L161.454 29.2948C161.945 28.338 162.858 28.0242 163.818 28.0242C165.154 28.0242 166.513 28.827 166.535 30.2554V30.4344C166.067 30.1669 165.066 29.7645 163.837 29.7645C161.364 29.7645 158.846 31.1236 158.846 33.6648C158.846 35.9845 160.875 37.4765 163.148 37.4765C164.889 37.4765 165.845 36.6968 166.446 35.7843H166.535V37.1223H169.033L169.035 37.1184ZM163.462 35.1818C162.615 35.1818 161.433 34.7582 161.433 33.7129C161.433 32.375 162.906 31.859 164.176 31.859C165.314 31.859 165.847 32.1035 166.54 32.4385C166.342 33.994 165.027 35.1625 163.462 35.1818ZM178.128 26.0644L175.163 33.5743H175.074L171.998 26.0644H169.212L173.825 36.564L171.193 42.4028H173.89L181 26.0644H178.128Z" fill="black"/>
<path d="M23.617 13.0235C24.2788 12.9392 24.9499 13.0833 25.5155 13.4313L44.7968 24.1928L39.9172 29.042L23.617 13.0235ZM22.1338 14.4797C22.0408 14.7968 21.9958 15.1255 22.0003 15.4554V45.5411C21.9958 45.871 22.0408 46.1997 22.1338 46.5168L38.4488 30.4983L22.1338 14.4797ZM39.932 31.9545L23.617 47.973C24.2791 48.065 24.9529 47.9203 25.5155 47.5652L44.7968 36.8037L39.932 31.9545ZM52.5687 28.5469L46.725 25.285L41.3855 30.4983L46.7101 35.7261L52.5539 32.4642C54.482 31.3866 54.482 29.61 52.5539 28.5323L52.5687 28.5469Z" fill="black"/>
</svg>
