<svg width="34" height="34" viewBox="0 0 34 34" fill="none" xmlns="http://www.w3.org/2000/svg">
<path d="M17 0.75C12.7985 0.750077 8.76032 2.37745 5.73281 5.29065C2.70529 8.20385 0.923766 12.1764 0.762053 16.3748C0.60034 20.5732 2.07101 24.6711 4.86546 27.8085C7.65992 30.946 11.561 32.8791 15.75 33.2024V20.7501H12C11.6685 20.7501 11.3505 20.6185 11.1161 20.384C10.8817 20.1496 10.75 19.8317 10.75 19.5001C10.75 19.1686 10.8817 18.8507 11.1161 18.6163C11.3505 18.3818 11.6685 18.2501 12 18.2501H15.75V14.5001C15.7515 13.1745 16.2788 11.9036 17.2161 10.9663C18.1535 10.0289 19.4244 9.50166 20.75 9.50015H23.25C23.5815 9.50015 23.8995 9.63184 24.1339 9.86626C24.3683 10.1007 24.5 10.4186 24.5 10.7501C24.5 11.0817 24.3683 11.3996 24.1339 11.634C23.8995 11.8685 23.5815 12.0001 23.25 12.0001H20.75C20.0872 12.0009 19.4517 12.2645 18.9831 12.7332C18.5144 13.2019 18.2508 13.8373 18.25 14.5001V18.2501H22C22.3315 18.2501 22.6495 18.3818 22.8839 18.6163C23.1183 18.8507 23.25 19.1686 23.25 19.5001C23.25 19.8317 23.1183 20.1496 22.8839 20.384C22.6495 20.6185 22.3315 20.7501 22 20.7501H18.25V33.2024C22.439 32.8791 26.34 30.9459 29.1345 27.8085C31.9289 24.671 33.3996 20.5732 33.2379 16.3748C33.0762 12.1764 31.2946 8.20387 28.2671 5.29067C25.2396 2.37748 21.2015 0.750092 17 0.75Z" fill="white"/>
</svg>
