<svg width="32" height="32" viewBox="0 0 32 32" fill="none" xmlns="http://www.w3.org/2000/svg">
<path d="M22.875 0.375H9.125C6.80516 0.377627 4.58109 1.30034 2.94072 2.94072C1.30034 4.58109 0.377627 6.80516 0.375 9.125V22.875C0.377627 25.1948 1.30034 27.4189 2.94072 29.0593C4.58109 30.6997 6.80516 31.6224 9.125 31.625H22.875C25.1948 31.6224 27.4189 30.6997 29.0593 29.0593C30.6997 27.4189 31.6224 25.1948 31.625 22.875V9.125C31.6224 6.80516 30.6997 4.58109 29.0593 2.94072C27.4189 1.30034 25.1948 0.377627 22.875 0.375ZM16 23.5C14.5166 23.5 13.0666 23.0601 11.8332 22.236C10.5999 21.4119 9.63856 20.2406 9.0709 18.8701C8.50325 17.4997 8.35472 15.9917 8.64411 14.5368C8.9335 13.082 9.64781 11.7456 10.6967 10.6967C11.7456 9.64781 13.082 8.9335 14.5368 8.64411C15.9917 8.35472 17.4997 8.50325 18.8701 9.0709C20.2406 9.63856 21.4119 10.5999 22.236 11.8332C23.0601 13.0666 23.5 14.5166 23.5 16C23.4978 17.9884 22.7069 19.8948 21.3008 21.3008C19.8948 22.7069 17.9884 23.4978 16 23.5ZM24.125 9.75C23.7542 9.75 23.3916 9.64003 23.0833 9.43401C22.775 9.22798 22.5346 8.93514 22.3927 8.59253C22.2508 8.24992 22.2137 7.87292 22.286 7.5092C22.3584 7.14549 22.537 6.8114 22.7992 6.54917C23.0614 6.28695 23.3955 6.10837 23.7592 6.03603C24.1229 5.96368 24.4999 6.00081 24.8425 6.14273C25.1851 6.28464 25.478 6.52496 25.684 6.83331C25.89 7.14165 26 7.50416 26 7.875C26 8.37228 25.8025 8.84919 25.4508 9.20083C25.0992 9.55246 24.6223 9.75 24.125 9.75Z" fill="white"/>
</svg>
