<svg width="35" height="32" viewBox="0 0 35 32" fill="none" xmlns="http://www.w3.org/2000/svg">
<path d="M33.1342 0.958936C32.7898 0.661517 32.3705 0.464001 31.9219 0.387777C31.4732 0.311553 31.0123 0.359526 30.5889 0.526502L1.75188 11.8554C1.24924 12.0529 0.824056 12.4078 0.539948 12.867C0.25584 13.3263 0.128083 13.8652 0.175794 14.4031C0.223505 14.941 0.444119 15.4491 0.804625 15.8511C1.16513 16.2532 1.64614 16.5278 2.17569 16.6337L9.50052 18.0987V27.2477C9.5001 27.7423 9.64647 28.226 9.9211 28.6374C10.1957 29.0488 10.5863 29.3694 11.0433 29.5587C11.5002 29.748 12.0031 29.7974 12.4882 29.7007C12.9733 29.604 13.4188 29.3655 13.7682 29.0154L17.8219 24.9618L23.9744 30.376C24.4274 30.7783 25.0119 31.0008 25.6177 31.0015C25.881 31.0012 26.1427 30.9597 26.3932 30.8785C26.8064 30.7475 27.178 30.5104 27.4709 30.1909C27.7639 29.8714 27.9679 29.4807 28.0627 29.0577L33.9398 3.41194C34.0422 2.96848 34.0212 2.50547 33.8792 2.07307C33.7372 1.64068 33.4796 1.25538 33.1342 0.958936ZM25.6259 28.4992L12.7521 17.1702L31.2903 3.78158L25.6259 28.4992Z" fill="white"/>
</svg>
