<svg width="40" height="24" viewBox="0 0 40 24" fill="none" xmlns="http://www.w3.org/2000/svg">
<path d="M33.1928 13.7623C32.5461 12.9223 32.7311 12.5486 33.1928 11.7977C33.2012 11.7891 38.5397 4.20171 39.0897 1.62857L39.093 1.62686C39.3664 0.689143 39.093 0 37.7713 0H33.3978C32.2845 0 31.7711 0.591428 31.4961 1.25314C31.4961 1.25314 29.2693 6.73543 26.1192 10.2891C25.1025 11.316 24.6325 11.6451 24.0775 11.6451C23.8042 11.6451 23.3791 11.316 23.3791 10.3783V1.62686C23.3791 0.502285 23.0675 0 22.1458 0H15.2689C14.5705 0 14.1555 0.524572 14.1555 1.01314C14.1555 2.07943 15.7305 2.32457 15.8939 5.32457V11.8337C15.8939 13.26 15.6422 13.5223 15.0839 13.5223C13.5971 13.5223 9.98868 8.01771 7.85027 1.71771C7.41859 0.495428 6.99691 0.00171416 5.8752 0.00171416H1.50005C0.251675 0.00171416 0 0.593143 0 1.25486C0 2.424 1.48672 8.23714 6.91357 15.9171C10.5304 21.1594 15.6239 24 20.2574 24C23.0425 24 23.3825 23.3691 23.3825 22.284C23.3825 17.2749 23.1308 16.8017 24.5259 16.8017C25.1725 16.8017 26.2859 17.1309 28.886 19.6594C31.8578 22.6577 32.3461 24 34.0095 24H38.383C39.6297 24 40.2614 23.3691 39.898 22.1246C39.0664 19.5069 33.4462 14.1223 33.1928 13.7623Z" fill="white"/>
</svg>
