<svg width="36" height="28" viewBox="0 0 36 28" fill="none" xmlns="http://www.w3.org/2000/svg">
<path d="M34.6142 4.906C34.4659 4.33108 34.1831 3.79965 33.7891 3.35556C33.395 2.91147 32.901 2.56746 32.3478 2.35191C26.9931 0.294263 18.4655 0.311428 18 0.313869C17.5347 0.310131 9.007 0.294181 3.65231 2.35191C3.09912 2.56745 2.60512 2.91144 2.21106 3.3555C1.81699 3.79956 1.53417 4.33096 1.38592 4.90585C0.981719 6.45752 0.5 9.29481 0.5 14.0002C0.5 18.7054 0.981719 21.5427 1.38585 23.0943C1.53407 23.6692 1.81688 24.2007 2.21094 24.6448C2.60501 25.0889 3.09903 25.4329 3.65224 25.6484C8.7782 27.6183 16.8119 27.6868 17.8971 27.6868C17.994 27.6868 18.006 27.6868 18.1029 27.6868C19.189 27.6867 27.222 27.6181 32.3477 25.6484C32.9009 25.4329 33.3949 25.0889 33.7889 24.6448C34.183 24.2008 34.4658 23.6694 34.6141 23.0945C35.0183 21.5428 35.5 18.7055 35.5 14.0002C35.5 9.29489 35.0183 6.45759 34.6142 4.906ZM23.3467 14.5202L15.8467 19.5202C15.7526 19.583 15.6432 19.619 15.5302 19.6245C15.4172 19.6299 15.3048 19.6046 15.2051 19.5512C15.1053 19.4979 15.0219 19.4184 14.9638 19.3214C14.9057 19.2243 14.875 19.1133 14.875 19.0002V9.00016C14.875 8.88704 14.9057 8.77602 14.9638 8.67897C15.0219 8.58192 15.1053 8.50246 15.2051 8.44908C15.3048 8.3957 15.4172 8.3704 15.5302 8.37587C15.6432 8.38134 15.7526 8.41738 15.8467 8.48014L23.3467 13.4801C23.4323 13.5372 23.5025 13.6145 23.551 13.7053C23.5996 13.796 23.625 13.8973 23.625 14.0002C23.625 14.1031 23.5996 14.2044 23.551 14.2951C23.5025 14.3858 23.4323 14.4631 23.3467 14.5202Z" fill="white"/>
</svg>
