<svg width="180" height="60" viewBox="0 0 180 60" fill="none" xmlns="http://www.w3.org/2000/svg">
<rect width="180" height="60" rx="8" fill="black"/>
<path d="M47.0568 28.3946C47.075 26.9683 47.4504 25.5697 48.1481 24.3291C48.8458 23.0885 49.8431 22.0461 51.0472 21.299C50.2823 20.1965 49.2731 19.2892 48.0999 18.6491C46.9268 18.009 45.6218 17.6538 44.2888 17.6117C41.4453 17.3105 38.6887 19.3289 37.2397 19.3289C35.7626 19.3289 33.5317 17.6416 31.1293 17.6915C29.5754 17.7422 28.0609 18.1982 26.7336 19.0152C25.4062 19.8321 24.3112 20.9822 23.5551 22.3532C20.2802 28.0755 22.723 36.4852 25.8601 41.1107C27.4297 43.3756 29.264 45.9056 31.6642 45.8159C34.013 45.7176 34.8902 44.3043 37.7253 44.3043C40.5342 44.3043 41.3572 45.8159 43.8061 45.7588C46.3264 45.7175 47.9143 43.4838 49.4288 41.1974C50.5565 39.5836 51.4243 37.7999 52 35.9125C50.5358 35.2875 49.2862 34.2414 48.4072 32.9045C47.5281 31.5676 47.0585 29.9991 47.0568 28.3946Z" fill="white"/>
<path d="M42.4311 14.9652C43.8053 13.3004 44.4823 11.1605 44.3183 9C42.2189 9.22254 40.2796 10.2352 38.8868 11.8362C38.2059 12.6183 37.6843 13.5282 37.352 14.5138C37.0197 15.4995 36.8832 16.5416 36.9502 17.5806C38.0003 17.5915 39.0391 17.3618 39.9885 16.9088C40.9379 16.4557 41.7731 15.7912 42.4311 14.9652Z" fill="white"/>
<path d="M72.967 32.5715H66.9762L65.5375 36.8588H63L68.6744 20.9971H71.3108L76.9852 36.8588H74.4044L72.967 32.5715ZM67.5966 30.5932H72.3454L70.0044 23.6353H69.9389L67.5966 30.5932Z" fill="white"/>
<path d="M89.2392 31.0779C89.2392 34.6715 87.3333 36.9804 84.4572 36.9804C83.7286 37.0189 83.004 36.8495 82.3664 36.4917C81.7288 36.1339 81.2039 35.6021 80.8518 34.9572H80.7974V40.6851H78.4453V25.295H80.722V27.2185H80.7653C81.1335 26.5767 81.6673 26.0476 82.3098 25.6876C82.9523 25.3276 83.6794 25.1501 84.4139 25.174C87.3222 25.174 89.2392 27.4941 89.2392 31.0779ZM86.8216 31.0779C86.8216 28.7365 85.6227 27.1973 83.7935 27.1973C81.9963 27.1973 80.7875 28.769 80.7875 31.0779C80.7875 33.408 81.9963 34.9684 83.7935 34.9684C85.6227 34.9684 86.8216 33.4404 86.8216 31.0779Z" fill="white"/>
<path d="M101.851 31.0778C101.851 34.6715 99.9447 36.9804 97.0685 36.9804C96.3399 37.0189 95.6154 36.8495 94.9777 36.4917C94.3401 36.1339 93.8152 35.6021 93.4632 34.9572H93.4087V40.6851H91.0566V25.295H93.3333V27.2185H93.3766C93.7448 26.5766 94.2786 26.0476 94.9211 25.6876C95.5636 25.3276 96.2907 25.1501 97.0252 25.174C99.9335 25.174 101.851 27.4941 101.851 31.0778ZM99.433 31.0778C99.433 28.7365 98.234 27.1972 96.4048 27.1972C94.6077 27.1972 93.3989 28.7689 93.3989 31.0778C93.3989 33.4079 94.6077 34.9684 96.4048 34.9684C98.2341 34.9684 99.433 33.4404 99.433 31.0778H99.433Z" fill="white"/>
<path d="M110.187 32.4391C110.361 34.0121 111.875 35.0448 113.944 35.0448C115.927 35.0448 117.353 34.012 117.353 32.5937C117.353 31.3626 116.493 30.6254 114.456 30.1202L112.419 29.625C109.533 28.9215 108.193 27.5593 108.193 25.349C108.193 22.6122 110.557 20.7324 113.912 20.7324C117.233 20.7324 119.51 22.6122 119.587 25.349H117.212C117.07 23.766 115.774 22.8106 113.879 22.8106C111.984 22.8106 110.688 23.7773 110.688 25.1843C110.688 26.3057 111.516 26.9656 113.541 27.4707L115.273 27.8998C118.498 28.6694 119.838 29.9767 119.838 32.2968C119.838 35.2643 117.495 37.1229 113.77 37.1229C110.285 37.1229 107.931 35.308 107.779 32.439L110.187 32.4391Z" fill="white"/>
<path d="M124.914 22.5576V25.2944H127.093V27.1742H124.914V33.5495C124.914 34.5399 125.35 35.0015 126.308 35.0015C126.567 34.9969 126.825 34.9786 127.082 34.9465V36.8151C126.651 36.8963 126.214 36.9331 125.776 36.9249C123.456 36.9249 122.551 36.0455 122.551 33.8027V27.1742H120.885V25.2944H122.551V22.5576H124.914Z" fill="white"/>
<path d="M128.355 31.0774C128.355 27.4388 130.479 25.1523 133.79 25.1523C137.112 25.1523 139.226 27.4387 139.226 31.0774C139.226 34.726 137.124 37.0024 133.79 37.0024C130.458 37.0024 128.355 34.726 128.355 31.0774ZM136.829 31.0774C136.829 28.5814 135.696 27.1082 133.79 27.1082C131.884 27.1082 130.752 28.5926 130.752 31.0774C130.752 33.5834 131.884 35.0453 133.79 35.0453C135.696 35.0453 136.829 33.5834 136.829 31.0774H136.829Z" fill="white"/>
<path d="M141.166 25.2949H143.409V27.2632H143.464C143.616 26.6485 143.972 26.1052 144.474 25.7247C144.976 25.3442 145.593 25.1497 146.22 25.1739C146.491 25.1729 146.761 25.2026 147.026 25.2625V27.4828C146.684 27.3773 146.327 27.3288 145.969 27.3393C145.627 27.3254 145.287 27.3862 144.971 27.5176C144.654 27.649 144.37 27.8479 144.137 28.1007C143.904 28.3534 143.728 28.6541 143.622 28.9819C143.515 29.3098 143.479 29.6571 143.518 30V36.8593H141.166L141.166 25.2949Z" fill="white"/>
<path d="M157.87 33.4624C157.553 35.5617 155.528 37.0024 152.936 37.0024C149.602 37.0024 147.533 34.7484 147.533 31.1323C147.533 27.5049 149.613 25.1523 152.837 25.1523C156.007 25.1523 158.001 27.3502 158.001 30.8566V31.6699H149.908V31.8133C149.87 32.2389 149.923 32.6677 150.062 33.0711C150.202 33.4745 150.425 33.8434 150.716 34.1532C151.008 34.463 151.361 34.7067 151.753 34.868C152.145 35.0293 152.567 35.1047 152.99 35.0889C153.546 35.1415 154.104 35.0116 154.58 34.7185C155.057 34.4254 155.428 33.9849 155.636 33.4624L157.87 33.4624ZM149.919 30.0109H155.647C155.669 29.6282 155.611 29.2452 155.479 28.8861C155.346 28.5269 155.141 28.1992 154.878 27.9236C154.614 27.648 154.296 27.4304 153.945 27.2845C153.594 27.1386 153.217 27.0676 152.837 27.0758C152.454 27.0735 152.074 27.1478 151.72 27.2943C151.365 27.4409 151.043 27.6568 150.772 27.9297C150.5 28.2026 150.285 28.527 150.139 28.8842C149.993 29.2414 149.918 29.6243 149.919 30.0109Z" fill="white"/>
</svg>
