<svg width="202" height="60" viewBox="0 0 202 60" fill="none" xmlns="http://www.w3.org/2000/svg">
<rect width="202" height="60" rx="8" fill="black"/>
<path fill-rule="evenodd" clip-rule="evenodd" d="M64.0038 28.3512C64.0038 23.3054 68.2449 19.1973 73.2906 19.1973C76.0801 19.1973 78.0648 20.2927 79.5626 21.7192L77.7992 23.4826C76.7288 22.4777 75.2773 21.698 73.2887 21.698C69.604 21.698 66.724 24.6646 66.724 28.3492C66.724 32.0339 69.604 35.0043 73.2867 35.0043C75.6758 35.0043 77.0349 34.0456 77.907 33.1716C78.6212 32.4574 79.089 31.4313 79.27 30.0241H73.2906V27.5291H81.7072C81.7957 27.9758 81.8419 28.5109 81.8419 29.0904C81.8419 30.9635 81.3279 33.2871 79.6742 34.9408C78.0648 36.6157 76.0127 37.5089 73.2887 37.5089C68.241 37.5089 64 33.4046 64 28.355L64.0038 28.3512ZM88.6452 25.7176C85.386 25.7176 82.7255 28.1972 82.7255 31.6104C82.7255 35.0063 85.3841 37.5031 88.6452 37.5031C91.9064 37.5031 94.5611 35.0024 94.5611 31.6084C94.5611 28.1952 91.9045 25.7157 88.6452 25.7176ZM88.6452 35.1853C86.8607 35.1853 85.3187 33.7126 85.3187 31.6123C85.3187 29.4908 86.8587 28.0393 88.6452 28.0393C90.4298 28.0393 91.9699 29.4889 91.9699 31.6123C91.9699 33.7107 90.4317 35.1853 88.6452 35.1853ZM101.553 25.7176C98.2939 25.7176 95.6372 28.1972 95.6372 31.6104C95.6372 35.0063 98.2939 37.5031 101.553 37.5031C104.812 37.5031 107.469 35.0024 107.469 31.6084C107.469 28.1952 104.814 25.7157 101.553 25.7176ZM101.553 35.1853C99.7685 35.1853 98.2265 33.7126 98.2265 31.6123C98.2265 29.4908 99.7666 28.0393 101.553 28.0393C103.338 28.0393 104.88 29.4889 104.88 31.6123C104.88 33.7107 103.338 35.1853 101.553 35.1853ZM117.395 26.0757V27.0344H117.306C116.727 26.3394 115.61 25.7157 114.205 25.7157C111.258 25.7157 108.553 28.3069 108.553 31.6354C108.553 34.937 111.256 37.507 114.205 37.507C115.61 37.507 116.727 36.8832 117.306 36.169H117.395V37.0161C117.395 39.2704 116.19 40.4774 114.247 40.4774C112.661 40.4774 111.679 39.3378 111.277 38.381L109.021 39.3185C109.667 40.8798 111.388 42.801 114.245 42.801C117.279 42.801 119.847 41.0126 119.847 36.6599V26.0738L117.395 26.0757ZM114.426 35.1853C112.642 35.1853 111.142 33.6876 111.142 31.6354C111.142 29.5601 112.64 28.0412 114.426 28.0412C116.19 28.0412 117.574 29.5582 117.574 31.6354C117.576 33.6876 116.192 35.1853 114.426 35.1853ZM121.636 19.8229H124.227V37.1489H121.636V19.8229ZM131.329 35.1853C130.012 35.1853 129.073 34.5808 128.474 33.4007L136.355 30.1377L136.084 29.4677C135.595 28.1529 134.097 25.7176 131.038 25.7176C128.002 25.7176 125.478 28.1067 125.478 31.6123C125.478 34.9139 127.979 37.5051 131.329 37.5051C134.032 37.5051 135.595 35.8552 136.242 34.8927L134.232 33.5547C133.56 34.5385 132.644 35.1872 131.329 35.1853ZM131.127 27.995C132.153 27.995 133.023 28.509 133.314 29.2444L128.043 31.4333C127.977 29.1559 129.808 27.995 131.127 27.995Z" fill="white"/>
<path fill-rule="evenodd" clip-rule="evenodd" d="M147.724 19.8223H141.529V37.1483H144.115V30.5856H147.726C150.593 30.5856 153.411 28.5103 153.411 25.2029C153.411 21.9014 150.595 19.8242 147.73 19.8242L147.724 19.8223ZM147.792 28.1734H144.115V22.2325H147.792C149.724 22.2325 150.826 23.8361 150.826 25.2029C150.826 26.5467 149.724 28.1734 147.792 28.1734ZM157.421 37.1483V19.8223H154.836V37.1483H157.421ZM169.035 37.1174V30.4758C169.035 27.3995 166.737 25.6842 163.77 25.6842C161.901 25.6842 159.962 26.5101 159.159 28.337L161.454 29.2938C161.945 28.337 162.858 28.0232 163.818 28.0232C165.154 28.0232 166.513 28.826 166.535 30.2544V30.4335C166.067 30.1659 165.066 29.7635 163.837 29.7635C161.364 29.7635 158.846 31.1227 158.846 33.6638C158.846 35.9836 160.875 37.4755 163.148 37.4755C164.889 37.4755 165.845 36.6959 166.446 35.7833H166.535V37.1213H169.033L169.035 37.1174ZM163.462 35.1808C162.615 35.1808 161.433 34.7573 161.433 33.7119C161.433 32.374 162.906 31.8581 164.176 31.8581C165.314 31.8581 165.847 32.1025 166.54 32.4375C166.342 33.993 165.027 35.1615 163.462 35.1808ZM178.128 26.0635L175.163 33.5733H175.074L171.998 26.0635H169.212L173.825 36.563L171.193 42.4019H173.89L181 26.0635H178.128Z" fill="white"/>
<path d="M23.617 13.0235C24.2788 12.9392 24.9499 13.0833 25.5155 13.4313L44.7968 24.1928L39.9172 29.042L23.617 13.0235ZM22.1338 14.4797C22.0408 14.7968 21.9958 15.1255 22.0003 15.4554V45.5411C21.9958 45.871 22.0408 46.1997 22.1338 46.5168L38.4488 30.4983L22.1338 14.4797ZM39.932 31.9545L23.617 47.973C24.2791 48.065 24.9529 47.9203 25.5155 47.5652L44.7968 36.8037L39.932 31.9545ZM52.5687 28.5469L46.725 25.285L41.3855 30.4983L46.7101 35.7261L52.5539 32.4642C54.482 31.3866 54.482 29.61 52.5539 28.5323L52.5687 28.5469Z" fill="white"/>
</svg>
