<svg width="182" height="40" viewBox="0 0 182 40" fill="none" xmlns="http://www.w3.org/2000/svg">
<path fill-rule="evenodd" clip-rule="evenodd" d="M1.66667 15C9.03046 15 15 9.03046 15 1.66667C15 1.61292 14.9997 1.55926 14.999 1.50567C14.9896 0.703883 15.6049 0 16.4068 0H23.6988C24.3988 0 24.9837 0.541354 24.9962 1.2412C24.9987 1.38272 25 1.52454 25 1.66667C25 14.5533 14.5533 25 1.66667 25C1.52454 25 1.38272 24.9987 1.2412 24.9962C0.541354 24.9837 0 24.3988 0 23.6988V16.4068C0 15.6049 0.703884 14.9896 1.50567 14.999C1.55926 14.9997 1.61292 15 1.66667 15ZM15 38.6667V28.219C15 27.8653 15.1405 27.5262 15.3905 27.2761L27.2761 15.3905C27.5262 15.1405 27.8653 15 28.219 15H38.6667C39.403 15 40 15.597 40 16.3333V23.6667C40 24.403 39.403 25 38.6667 25H26.3333C25.597 25 25 25.597 25 26.3333V38.6667C25 39.403 24.403 40 23.6667 40H16.3333C15.597 40 15 39.403 15 38.6667Z" fill="white"/>
<path d="M70.1664 10V29.6906H65.8839V24.4585H61.9226L58.6037 29.6906H54.0268L57.9345 23.7553C56.6676 23.2114 55.6952 22.3957 55.0171 21.308C54.339 20.2016 54 18.8795 54 17.3418C54 15.8228 54.3301 14.5195 54.9903 13.4318C55.6505 12.3254 56.5873 11.4815 57.8007 10.9001C59.0141 10.3 60.4416 10 62.0832 10H70.1664ZM62.1903 13.7131C60.959 13.7131 60.0133 14.0131 59.3531 14.6132C58.7107 15.2133 58.3896 16.1041 58.3896 17.2855C58.3896 18.4294 58.7018 19.3108 59.3263 19.9297C59.9509 20.5485 60.8698 20.8579 62.0832 20.8579H65.8839V13.7131H62.1903Z" fill="white"/>
<path d="M85.1116 21.7862C86.8068 22.3863 87.6543 23.5865 87.6543 25.3868C87.6543 26.7557 87.1636 27.8153 86.1822 28.5654C85.2008 29.3155 83.7376 29.6906 81.7927 29.6906H74.111V14.557H81.4715C83.2737 14.557 84.6834 14.9039 85.7005 15.5977C86.7175 16.2729 87.2261 17.2293 87.2261 18.4669C87.2261 19.2171 87.0387 19.8828 86.664 20.4641C86.3071 21.0267 85.7897 21.4674 85.1116 21.7862ZM77.9384 20.7736H81.0968C82.56 20.7736 83.2916 20.2297 83.2916 19.1421C83.2916 18.0731 82.56 17.5387 81.0968 17.5387H77.9384V20.7736ZM81.4447 26.7089C82.9793 26.7089 83.7466 26.1556 83.7466 25.0492C83.7466 24.4679 83.5681 24.0459 83.2113 23.7834C82.8544 23.5021 82.2923 23.3615 81.525 23.3615H77.9384V26.7089H81.4447Z" fill="white"/>
<path d="M107.73 10V29.6906H103.421V13.7131H94.9632V29.6906H90.654V10H107.73Z" fill="white"/>
<path d="M125.436 14.557V29.6906H121.261V18.1575H116.711L116.577 20.8298C116.506 22.8176 116.327 24.4679 116.042 25.7806C115.756 27.0933 115.292 28.1247 114.65 28.8748C114.008 29.6249 113.115 30 111.973 30C111.367 30 110.644 29.8875 109.805 29.6624L110.019 26.0619C110.305 26.0994 110.51 26.1181 110.635 26.1181C111.26 26.1181 111.724 25.8837 112.027 25.4149C112.348 24.9273 112.562 24.3179 112.669 23.5865C112.776 22.8364 112.857 21.8519 112.91 20.6329L113.124 14.557H125.436Z" fill="white"/>
<path d="M142.647 14.3319C144.11 14.3319 145.422 14.6695 146.582 15.3446C147.741 16.0009 148.652 16.9198 149.312 18.1013C149.972 19.2827 150.302 20.6235 150.302 22.1238C150.302 23.624 149.972 24.9648 149.312 26.1463C148.652 27.3277 147.741 28.256 146.582 28.9311C145.422 29.5874 144.11 29.9156 142.647 29.9156C141.38 29.9156 140.22 29.6718 139.168 29.1842C138.115 28.6779 137.24 27.9747 136.545 27.0745C135.849 26.1557 135.385 25.1055 135.153 23.9241H133.172V29.6906H129.023V14.557H133.172V20.1266H135.18C135.59 18.3638 136.464 16.9573 137.803 15.9072C139.141 14.857 140.756 14.3319 142.647 14.3319ZM142.647 26.3151C143.664 26.3151 144.503 25.94 145.163 25.1899C145.841 24.421 146.18 23.399 146.18 22.1238C146.18 20.8298 145.841 19.8078 145.163 19.0577C144.503 18.3075 143.664 17.9325 142.647 17.9325C141.612 17.9325 140.756 18.3075 140.078 19.0577C139.417 19.8078 139.087 20.8298 139.087 22.1238C139.087 23.399 139.417 24.421 140.078 25.1899C140.756 25.94 141.612 26.3151 142.647 26.3151Z" fill="white"/>
<path d="M159.625 29.9156C158.09 29.9156 156.708 29.5874 155.476 28.9311C154.263 28.256 153.308 27.3277 152.612 26.1463C151.934 24.9648 151.595 23.624 151.595 22.1238C151.595 20.6235 151.934 19.2827 152.612 18.1013C153.308 16.9198 154.263 16.0009 155.476 15.3446C156.708 14.6695 158.09 14.3319 159.625 14.3319C161.142 14.3319 162.462 14.6695 163.586 15.3446C164.728 16.0009 165.558 16.948 166.076 18.1857L162.837 20.0141C162.087 18.6263 161.008 17.9325 159.598 17.9325C158.51 17.9325 157.609 18.3075 156.895 19.0577C156.181 19.8078 155.824 20.8298 155.824 22.1238C155.824 23.4177 156.181 24.4398 156.895 25.1899C157.609 25.94 158.51 26.3151 159.598 26.3151C161.026 26.3151 162.105 25.6212 162.837 24.2335L166.076 26.09C165.558 27.2902 164.728 28.2278 163.586 28.903C162.462 29.5781 161.142 29.9156 159.625 29.9156Z" fill="white"/>
<path d="M182 22.18C182 22.2363 181.973 22.6301 181.92 23.3615H171.026C171.222 24.2991 171.686 25.0399 172.418 25.5837C173.15 26.1275 174.06 26.3994 175.148 26.3994C175.897 26.3994 176.558 26.2869 177.129 26.0619C177.718 25.8181 178.262 25.443 178.761 24.9367L180.983 27.4684C179.627 29.0999 177.646 29.9156 175.041 29.9156C173.417 29.9156 171.981 29.5874 170.732 28.9311C169.483 28.256 168.519 27.3277 167.841 26.1463C167.163 24.9648 166.824 23.624 166.824 22.1238C166.824 20.6423 167.154 19.3108 167.814 18.1294C168.492 16.9292 169.411 16.0009 170.571 15.3446C171.749 14.6695 173.06 14.3319 174.506 14.3319C175.915 14.3319 177.191 14.6507 178.333 15.2883C179.475 15.9259 180.367 16.8448 181.01 18.045C181.67 19.2264 182 20.6048 182 22.18ZM174.532 17.6512C173.587 17.6512 172.793 17.9325 172.15 18.4951C171.508 19.0577 171.115 19.8265 170.973 20.8017H178.065C177.923 19.8453 177.53 19.0858 176.888 18.5232C176.245 17.9419 175.46 17.6512 174.532 17.6512Z" fill="white"/>
</svg>
