<svg width="72" height="72" viewBox="0 0 72 72" fill="none" xmlns="http://www.w3.org/2000/svg">
<path d="M36 72C55.8822 72 72 55.8822 72 36C72 16.1177 55.8822 0 36 0C16.1177 0 0 16.1177 0 36C0 55.8822 16.1177 72 36 72Z" fill="#F8F8F8"/>
<path d="M42.25 51H24.75C24.4185 51 24.1005 50.8683 23.8661 50.6339C23.6317 50.3995 23.5 50.0815 23.5 49.75V27.25C23.5 26.9185 23.6317 26.6005 23.8661 26.3661C24.1005 26.1317 24.4185 26 24.75 26H37.25L43.5 32.25V49.75C43.5 50.0815 43.3683 50.3995 43.1339 50.6339C42.8995 50.8683 42.5815 51 42.25 51Z" stroke="#F31818" stroke-width="2" stroke-linecap="round" stroke-linejoin="round"/>
<path d="M28.5 26V22.25C28.5 21.9185 28.6317 21.6005 28.8661 21.3661C29.1005 21.1317 29.4185 21 29.75 21H42.25L48.5 27.25V44.75C48.5 45.0815 48.3683 45.3995 48.1339 45.6339C47.8995 45.8683 47.5815 46 47.25 46H43.5" stroke="#F31818" stroke-width="2" stroke-linecap="round" stroke-linejoin="round"/>
<path d="M29.75 39.75H37.25" stroke="#F31818" stroke-width="2" stroke-linecap="round" stroke-linejoin="round"/>
<path d="M29.75 44.75H37.25" stroke="#F31818" stroke-width="2" stroke-linecap="round" stroke-linejoin="round"/>
</svg>
