<svg width="72" height="72" viewBox="0 0 72 72" fill="none" xmlns="http://www.w3.org/2000/svg">
<path d="M36 72C55.8822 72 72 55.8822 72 36C72 16.1177 55.8822 0 36 0C16.1177 0 0 16.1177 0 36C0 55.8822 16.1177 72 36 72Z" fill="#F8F8F8"/>
<path d="M39.75 28.5V47.831C39.75 48.0368 39.8008 48.2394 39.8979 48.4208C39.995 48.6023 40.1354 48.7569 40.3066 48.8711L42.0241 50.0161C42.1908 50.1272 42.3817 50.1966 42.5809 50.2185C42.78 50.2404 42.9814 50.2142 43.1683 50.1419C43.3551 50.0697 43.5218 49.9536 43.6544 49.8035C43.787 49.6533 43.8816 49.4735 43.9302 49.2792L46 41" stroke="#F31818" stroke-width="2" stroke-linecap="round" stroke-linejoin="round"/>
<path d="M46 40.9998C47.6576 40.9998 49.2473 40.3413 50.4194 39.1692C51.5915 37.9971 52.25 36.4074 52.25 34.7498C52.25 33.0922 51.5915 31.5025 50.4194 30.3304C49.2473 29.1583 47.6576 28.4998 46 28.4998H39.75C39.75 28.4998 31.2419 28.4998 23.0545 21.633C22.8724 21.4797 22.6504 21.3816 22.4144 21.3503C22.1785 21.3189 21.9385 21.3555 21.7227 21.4559C21.5069 21.5563 21.3243 21.7162 21.1962 21.9168C21.0682 22.1174 21.0001 22.3505 21 22.5885V46.9111C21.0001 47.1491 21.0682 47.3821 21.1962 47.5827C21.3243 47.7834 21.5069 47.9433 21.7227 48.0436C21.9385 48.144 22.1785 48.1807 22.4144 48.1493C22.6504 48.1179 22.8724 48.0199 23.0545 47.8666C31.2419 40.9998 39.75 40.9998 39.75 40.9998H46Z" stroke="#F31818" stroke-width="2" stroke-linecap="round" stroke-linejoin="round"/>
</svg>
