<svg width="72" height="72" viewBox="0 0 72 72" fill="none" xmlns="http://www.w3.org/2000/svg">
<path d="M36 72C55.8822 72 72 55.8822 72 36C72 16.1177 55.8822 0 36 0C16.1177 0 0 16.1177 0 36C0 55.8822 16.1177 72 36 72Z" fill="white"/>
<path d="M51 24.75H21C20.3096 24.75 19.75 25.3096 19.75 26V46C19.75 46.6904 20.3096 47.25 21 47.25H51C51.6904 47.25 52.25 46.6904 52.25 46V26C52.25 25.3096 51.6904 24.75 51 24.75Z" stroke="#2B64F8" stroke-width="2" stroke-linecap="round" stroke-linejoin="round"/>
<path d="M42.25 42.25H47.25" stroke="#2B64F8" stroke-width="2" stroke-linecap="round" stroke-linejoin="round"/>
<path d="M34.75 42.25H37.25" stroke="#2B64F8" stroke-width="2" stroke-linecap="round" stroke-linejoin="round"/>
<path d="M19.75 31.1333H52.25" stroke="#2B64F8" stroke-width="2" stroke-linecap="round" stroke-linejoin="round"/>
</svg>
