<svg width="72" height="72" viewBox="0 0 72 72" fill="none" xmlns="http://www.w3.org/2000/svg">
<path d="M36 72C55.8822 72 72 55.8822 72 36C72 16.1177 55.8822 0 36 0C16.1177 0 0 16.1177 0 36C0 55.8822 16.1177 72 36 72Z" fill="white"/>
<path d="M48.5 29.75H23.5C22.8096 29.75 22.25 30.3096 22.25 31V48.5C22.25 49.1904 22.8096 49.75 23.5 49.75H48.5C49.1904 49.75 49.75 49.1904 49.75 48.5V31C49.75 30.3096 49.1904 29.75 48.5 29.75Z" stroke="#2B64F8" stroke-width="2" stroke-linecap="round" stroke-linejoin="round"/>
<path d="M30.375 29.75V24.125C30.375 22.6332 30.9676 21.2024 32.0225 20.1475C33.0774 19.0926 34.5082 18.5 36 18.5C37.4918 18.5 38.9226 19.0926 39.9775 20.1475C41.0324 21.2024 41.625 22.6332 41.625 24.125V29.75" stroke="#2B64F8" stroke-width="2" stroke-linecap="round" stroke-linejoin="round"/>
</svg>
