<svg width="72" height="72" viewBox="0 0 72 72" fill="none" xmlns="http://www.w3.org/2000/svg">
<path d="M36 72C55.8822 72 72 55.8822 72 36C72 16.1177 55.8822 0 36 0C16.1177 0 0 16.1177 0 36C0 55.8822 16.1177 72 36 72Z" fill="white"/>
<path d="M16 36C16 24.9543 24.9543 16 36 16C47.0457 16 56 24.9543 56 36C56 47.0457 47.0457 56 36 56C24.9543 56 16 47.0457 16 36Z" fill="white"/>
<path d="M42.875 32.25L33.7083 41L29.125 36.625" stroke="#2B64F8" stroke-width="2" stroke-linecap="round" stroke-linejoin="round"/>
<path d="M36 51C44.2843 51 51 44.2843 51 36C51 27.7157 44.2843 21 36 21C27.7157 21 21 27.7157 21 36C21 44.2843 27.7157 51 36 51Z" stroke="#2B64F8" stroke-width="2" stroke-linecap="round" stroke-linejoin="round"/>
</svg>
