<svg width="72" height="72" viewBox="0 0 72 72" fill="none" xmlns="http://www.w3.org/2000/svg">
<path d="M36 72C55.8822 72 72 55.8822 72 36C72 16.1177 55.8822 0 36 0C16.1177 0 0 16.1177 0 36C0 55.8822 16.1177 72 36 72Z" fill="#2B64F8"/>
<path d="M43.5 26H28.5V33.5H43.5V26Z" stroke="white" stroke-width="2" stroke-linecap="round" stroke-linejoin="round"/>
<path d="M48.5 49.75V22.25C48.5 21.5596 47.9404 21 47.25 21H24.75C24.0596 21 23.5 21.5596 23.5 22.25V49.75C23.5 50.4404 24.0596 51 24.75 51H47.25C47.9404 51 48.5 50.4404 48.5 49.75Z" stroke="white" stroke-width="2" stroke-linecap="round" stroke-linejoin="round"/>
<path d="M29.75 41C30.7855 41 31.625 40.1605 31.625 39.125C31.625 38.0895 30.7855 37.25 29.75 37.25C28.7145 37.25 27.875 38.0895 27.875 39.125C27.875 40.1605 28.7145 41 29.75 41Z" fill="white"/>
<path d="M36 41C37.0355 41 37.875 40.1605 37.875 39.125C37.875 38.0895 37.0355 37.25 36 37.25C34.9645 37.25 34.125 38.0895 34.125 39.125C34.125 40.1605 34.9645 41 36 41Z" fill="white"/>
<path d="M42.25 41C43.2855 41 44.125 40.1605 44.125 39.125C44.125 38.0895 43.2855 37.25 42.25 37.25C41.2145 37.25 40.375 38.0895 40.375 39.125C40.375 40.1605 41.2145 41 42.25 41Z" fill="white"/>
<path d="M29.75 47.25C30.7855 47.25 31.625 46.4105 31.625 45.375C31.625 44.3395 30.7855 43.5 29.75 43.5C28.7145 43.5 27.875 44.3395 27.875 45.375C27.875 46.4105 28.7145 47.25 29.75 47.25Z" fill="white"/>
<path d="M36 47.25C37.0355 47.25 37.875 46.4105 37.875 45.375C37.875 44.3395 37.0355 43.5 36 43.5C34.9645 43.5 34.125 44.3395 34.125 45.375C34.125 46.4105 34.9645 47.25 36 47.25Z" fill="white"/>
<path d="M42.25 47.25C43.2855 47.25 44.125 46.4105 44.125 45.375C44.125 44.3395 43.2855 43.5 42.25 43.5C41.2145 43.5 40.375 44.3395 40.375 45.375C40.375 46.4105 41.2145 47.25 42.25 47.25Z" fill="white"/>
</svg>
