<svg width="72" height="72" viewBox="0 0 72 72" fill="none" xmlns="http://www.w3.org/2000/svg">
<path d="M36 72C55.8822 72 72 55.8822 72 36C72 16.1177 55.8822 0 36 0C16.1177 0 0 16.1177 0 36C0 55.8822 16.1177 72 36 72Z" fill="#2B64F8"/>
<path d="M27.875 32.25H44.125" stroke="white" stroke-width="2" stroke-linecap="round" stroke-linejoin="round"/>
<path d="M27.875 37.25H44.125" stroke="white" stroke-width="2" stroke-linecap="round" stroke-linejoin="round"/>
<path d="M21 48.5V24.75C21 24.4185 21.1317 24.1005 21.3661 23.8661C21.6005 23.6317 21.9185 23.5 22.25 23.5H49.75C50.0815 23.5 50.3995 23.6317 50.6339 23.8661C50.8683 24.1005 51 24.4185 51 24.75V48.5L46 46L41 48.5L36 46L31 48.5L26 46L21 48.5Z" stroke="white" stroke-width="2" stroke-linecap="round" stroke-linejoin="round"/>
</svg>
