<svg width="72" height="72" viewBox="0 0 72 72" fill="none" xmlns="http://www.w3.org/2000/svg">
<path d="M36 72C55.8822 72 72 55.8822 72 36C72 16.1177 55.8822 0 36 0C16.1177 0 0 16.1177 0 36C0 55.8822 16.1177 72 36 72Z" fill="#2B64F8"/>
<path d="M31 39.75H41" stroke="white" stroke-width="2" stroke-linecap="round" stroke-linejoin="round"/>
<path d="M31 34.75H41" stroke="white" stroke-width="2" stroke-linecap="round" stroke-linejoin="round"/>
<path d="M41.0003 22.25H47.25C47.5815 22.25 47.8995 22.3817 48.1339 22.6161C48.3683 22.8505 48.5 23.1685 48.5 23.5V49.75C48.5 50.0815 48.3683 50.3995 48.1339 50.6339C47.8995 50.8683 47.5815 51 47.25 51H24.75C24.4185 51 24.1005 50.8683 23.8661 50.6339C23.6317 50.3995 23.5 50.0815 23.5 49.75V23.5C23.5 23.1685 23.6317 22.8505 23.8661 22.6161C24.1005 22.3817 24.4185 22.25 24.75 22.25H30.9997" stroke="white" stroke-width="2" stroke-linecap="round" stroke-linejoin="round"/>
<path d="M29.75 27.25V26C29.75 24.3424 30.4085 22.7527 31.5806 21.5806C32.7527 20.4085 34.3424 19.75 36 19.75C37.6576 19.75 39.2473 20.4085 40.4194 21.5806C41.5915 22.7527 42.25 24.3424 42.25 26V27.25H29.75Z" stroke="white" stroke-width="2" stroke-linecap="round" stroke-linejoin="round"/>
</svg>
