<svg width="72" height="72" viewBox="0 0 72 72" fill="none" xmlns="http://www.w3.org/2000/svg">
<path d="M36 72C55.8822 72 72 55.8822 72 36C72 16.1177 55.8822 0 36 0C16.1177 0 0 16.1177 0 36C0 55.8822 16.1177 72 36 72Z" fill="#2B64F8"/>
<path d="M36 44.125C39.4518 44.125 42.25 41.3268 42.25 37.875C42.25 34.4232 39.4518 31.625 36 31.625C32.5482 31.625 29.75 34.4232 29.75 37.875C29.75 41.3268 32.5482 44.125 36 44.125Z" stroke="white" stroke-width="2" stroke-linecap="round" stroke-linejoin="round"/>
<path d="M46.625 34.125C48.0806 34.1238 49.5164 34.462 50.8184 35.1129C52.1204 35.7638 53.2526 36.7093 54.1252 37.8743" stroke="white" stroke-width="2" stroke-linecap="round" stroke-linejoin="round"/>
<path d="M17.875 37.8747C18.7476 36.7095 19.8798 35.7639 21.1819 35.113C22.4839 34.4621 23.9198 34.1238 25.3754 34.125" stroke="white" stroke-width="2" stroke-linecap="round" stroke-linejoin="round"/>
<path d="M27.0059 49.7499C27.827 48.0633 29.1057 46.6416 30.6962 45.647C32.2866 44.6524 34.1247 44.125 36.0005 44.125C37.8763 44.125 39.7143 44.6524 41.3048 45.647C42.8952 46.6416 44.174 48.0633 44.9951 49.7498" stroke="white" stroke-width="2" stroke-linecap="round" stroke-linejoin="round"/>
<path d="M25.3741 34.125C24.4254 34.1248 23.4963 33.8548 22.6954 33.3463C21.8944 32.8379 21.2547 32.1121 20.8508 31.2537C20.4469 30.3953 20.2955 29.4396 20.4144 28.4984C20.5333 27.5572 20.9175 26.6692 21.5222 25.9382C22.1268 25.2072 22.927 24.6633 23.8292 24.37C24.7314 24.0767 25.6984 24.0461 26.6174 24.2818C27.5363 24.5175 28.3692 25.0098 29.0188 25.7012C29.6685 26.3926 30.108 27.2545 30.2861 28.1863" stroke="white" stroke-width="2" stroke-linecap="round" stroke-linejoin="round"/>
<path d="M41.7129 28.1863C41.8909 27.2543 42.3304 26.3922 42.9801 25.7007C43.6297 25.0092 44.4627 24.5167 45.3817 24.2809C46.3008 24.0451 47.268 24.0756 48.1703 24.3689C49.0726 24.6623 49.8729 25.2062 50.4777 25.9374C51.0824 26.6685 51.4666 27.5566 51.5855 28.4979C51.7044 29.4393 51.553 30.395 51.149 31.2535C50.7451 32.112 50.1051 32.8379 49.3041 33.3463C48.503 33.8548 47.5738 34.1248 46.6249 34.1249" stroke="white" stroke-width="2" stroke-linecap="round" stroke-linejoin="round"/>
</svg>
