<svg width="180" height="60" viewBox="0 0 180 60" fill="none" xmlns="http://www.w3.org/2000/svg">
<rect width="180" height="60" rx="12" fill="white"/>
<path d="M47.0568 28.3944C47.075 26.968 47.4504 25.5695 48.1481 24.3288C48.8458 23.0882 49.8431 22.0459 51.0472 21.2988C50.2823 20.1963 49.2731 19.2889 48.0999 18.6488C46.9268 18.0087 45.6218 17.6535 44.2888 17.6115C41.4453 17.3102 38.6887 19.3286 37.2397 19.3286C35.7626 19.3286 33.5317 17.6414 31.1293 17.6912C29.5754 17.7419 28.0609 18.1979 26.7336 19.0149C25.4062 19.8319 24.3112 20.9819 23.5551 22.353C20.2802 28.0752 22.723 36.485 25.8601 41.1104C27.4297 43.3753 29.264 45.9053 31.6642 45.8156C34.013 45.7173 34.8902 44.3041 37.7253 44.3041C40.5342 44.3041 41.3572 45.8156 43.8061 45.7586C46.3264 45.7173 47.9143 43.4836 49.4288 41.1972C50.5565 39.5833 51.4243 37.7997 52 35.9123C50.5358 35.2873 49.2862 34.2411 48.4072 32.9042C47.5281 31.5673 47.0585 29.9989 47.0568 28.3944Z" fill="black"/>
<path d="M42.4311 14.9652C43.8053 13.3004 44.4823 11.1605 44.3183 9C42.2189 9.22254 40.2796 10.2352 38.8868 11.8362C38.2059 12.6183 37.6843 13.5282 37.352 14.5138C37.0197 15.4995 36.8832 16.5416 36.9502 17.5806C38.0003 17.5915 39.0391 17.3618 39.9885 16.9088C40.9379 16.4557 41.7731 15.7912 42.4311 14.9652Z" fill="black"/>
<path d="M72.967 32.572H66.9762L65.5375 36.8592H63L68.6744 20.9976H71.3108L76.9852 36.8592H74.4044L72.967 32.572ZM67.5966 30.5937H72.3454L70.0044 23.6358H69.9389L67.5966 30.5937Z" fill="black"/>
<path d="M89.2392 31.0779C89.2392 34.6715 87.3333 36.9804 84.4572 36.9804C83.7286 37.0189 83.004 36.8495 82.3664 36.4917C81.7288 36.1339 81.2039 35.6021 80.8518 34.9572H80.7974V40.6851H78.4453V25.295H80.722V27.2185H80.7653C81.1335 26.5767 81.6673 26.0476 82.3098 25.6876C82.9523 25.3276 83.6794 25.1501 84.4139 25.174C87.3222 25.174 89.2392 27.4941 89.2392 31.0779ZM86.8216 31.0779C86.8216 28.7365 85.6227 27.1973 83.7935 27.1973C81.9963 27.1973 80.7875 28.769 80.7875 31.0779C80.7875 33.408 81.9963 34.9684 83.7935 34.9684C85.6227 34.9684 86.8216 33.4404 86.8216 31.0779Z" fill="black"/>
<path d="M101.851 31.0778C101.851 34.6715 99.9447 36.9804 97.0685 36.9804C96.3399 37.0189 95.6154 36.8495 94.9777 36.4917C94.3401 36.1339 93.8152 35.6021 93.4632 34.9572H93.4087V40.6851H91.0566V25.295H93.3333V27.2185H93.3766C93.7448 26.5766 94.2786 26.0476 94.9211 25.6876C95.5636 25.3276 96.2907 25.1501 97.0252 25.174C99.9335 25.174 101.851 27.4941 101.851 31.0778ZM99.433 31.0778C99.433 28.7365 98.234 27.1972 96.4048 27.1972C94.6077 27.1972 93.3989 28.7689 93.3989 31.0778C93.3989 33.4079 94.6077 34.9684 96.4048 34.9684C98.2341 34.9684 99.433 33.4404 99.433 31.0778H99.433Z" fill="black"/>
<path d="M110.187 32.4396C110.361 34.0126 111.875 35.0453 113.944 35.0453C115.927 35.0453 117.353 34.0125 117.353 32.5942C117.353 31.3631 116.493 30.6259 114.456 30.1207L112.419 29.6255C109.533 28.922 108.193 27.5598 108.193 25.3495C108.193 22.6127 110.557 20.7329 113.912 20.7329C117.233 20.7329 119.51 22.6127 119.587 25.3495H117.212C117.07 23.7665 115.774 22.811 113.879 22.811C111.984 22.811 110.688 23.7778 110.688 25.1848C110.688 26.3062 111.516 26.9661 113.541 27.4712L115.273 27.9003C118.498 28.6699 119.838 29.9772 119.838 32.2973C119.838 35.2648 117.495 37.1234 113.77 37.1234C110.285 37.1234 107.931 35.3085 107.779 32.4395L110.187 32.4396Z" fill="black"/>
<path d="M124.914 22.5581V25.2949H127.093V27.1746H124.914V33.55C124.914 34.5404 125.35 35.0019 126.308 35.0019C126.567 34.9974 126.825 34.9791 127.082 34.947V36.8156C126.651 36.8968 126.214 36.9336 125.776 36.9254C123.456 36.9254 122.551 36.046 122.551 33.8032V27.1746H120.885V25.2949H122.551V22.5581H124.914Z" fill="black"/>
<path d="M128.355 31.0779C128.355 27.4393 130.479 25.1528 133.79 25.1528C137.112 25.1528 139.226 27.4392 139.226 31.0779C139.226 34.7265 137.124 37.0029 133.79 37.0029C130.458 37.0029 128.355 34.7264 128.355 31.0779ZM136.829 31.0779C136.829 28.5819 135.696 27.1087 133.79 27.1087C131.884 27.1087 130.752 28.5931 130.752 31.0779C130.752 33.5838 131.884 35.0458 133.79 35.0458C135.696 35.0458 136.829 33.5838 136.829 31.0779H136.829Z" fill="black"/>
<path d="M141.166 25.2949H143.409V27.2632H143.464C143.616 26.6485 143.972 26.1052 144.474 25.7247C144.976 25.3442 145.593 25.1497 146.22 25.1739C146.491 25.1729 146.761 25.2026 147.026 25.2625V27.4828C146.684 27.3773 146.327 27.3288 145.969 27.3393C145.627 27.3254 145.287 27.3862 144.971 27.5176C144.654 27.649 144.37 27.8479 144.137 28.1007C143.904 28.3534 143.728 28.6541 143.622 28.9819C143.515 29.3098 143.479 29.6571 143.518 30V36.8593H141.166L141.166 25.2949Z" fill="black"/>
<path d="M157.87 33.4629C157.553 35.5622 155.528 37.0029 152.936 37.0029C149.602 37.0029 147.533 34.7489 147.533 31.1328C147.533 27.5054 149.613 25.1528 152.837 25.1528C156.007 25.1528 158.001 27.3507 158.001 30.8571V31.6704H149.908V31.8138C149.87 32.2394 149.923 32.6682 150.062 33.0716C150.202 33.475 150.425 33.8439 150.716 34.1537C151.008 34.4635 151.361 34.7072 151.753 34.8685C152.145 35.0298 152.567 35.1051 152.99 35.0894C153.546 35.142 154.104 35.0121 154.58 34.719C155.057 34.4259 155.428 33.9854 155.636 33.4628L157.87 33.4629ZM149.919 30.0114H155.647C155.669 29.6287 155.611 29.2457 155.479 28.8865C155.346 28.5273 155.141 28.1997 154.878 27.9241C154.614 27.6485 154.296 27.4309 153.945 27.285C153.594 27.1391 153.217 27.0681 152.837 27.0763C152.454 27.074 152.074 27.1483 151.72 27.2948C151.365 27.4414 151.043 27.6573 150.772 27.9302C150.5 28.2031 150.285 28.5275 150.139 28.8847C149.993 29.2419 149.918 29.6248 149.919 30.0114Z" fill="black"/>
</svg>
