<svg width="72" height="72" viewBox="0 0 72 72" fill="none" xmlns="http://www.w3.org/2000/svg">
<path d="M36 72C55.8822 72 72 55.8822 72 36C72 16.1177 55.8822 0 36 0C16.1177 0 0 16.1177 0 36C0 55.8822 16.1177 72 36 72Z" fill="white"/>
<path d="M34.7494 32.628L30.6869 25.5915C30.2733 24.8738 30.1616 24.0212 30.3764 23.2212C30.5911 22.4212 31.1147 21.7391 31.832 21.3249C32.5494 20.9108 33.4019 20.7983 34.2021 21.0124C35.0023 21.2265 35.6848 21.7495 36.0996 22.4665L42.3496 33.2918" stroke="#2B64F8" stroke-width="2" stroke-linecap="round" stroke-linejoin="round"/>
<path d="M29.961 36.8356L24.0235 26.5516C23.8179 26.1962 23.6844 25.8037 23.6305 25.3967C23.5767 24.9896 23.6036 24.5759 23.7097 24.1793C23.8158 23.7826 23.999 23.4108 24.2489 23.085C24.4988 22.7592 24.8104 22.4858 25.166 22.2805C25.5216 22.0752 25.9142 21.942 26.3213 21.8885C26.7284 21.835 27.142 21.8622 27.5386 21.9686C27.9352 22.0751 28.3069 22.2586 28.6324 22.5088C28.958 22.7589 29.2311 23.0708 29.4362 23.4266L34.7487 32.6281" stroke="#2B64F8" stroke-width="2" stroke-linecap="round" stroke-linejoin="round"/>
<path d="M40.0611 41.8297C39.2323 40.3942 39.0077 38.6883 39.4367 37.0871C39.8657 35.486 40.9132 34.1209 42.3487 33.2921L40.7862 30.5858C40.5806 30.2303 40.4471 29.8379 40.3932 29.4308C40.3394 29.0238 40.3663 28.6101 40.4724 28.2135C40.5785 27.8168 40.7617 27.4449 41.0116 27.1191C41.2615 26.7933 41.5731 26.52 41.9287 26.3147C42.2843 26.1094 42.6769 25.9762 43.084 25.9226C43.4911 25.8691 43.9047 25.8964 44.3013 26.0028C44.6979 26.1093 45.0696 26.2928 45.3952 26.543C45.7208 26.7931 45.9939 27.105 46.1989 27.4608L49.3239 32.8734C50.1451 34.295 50.6782 35.8645 50.8927 37.4922C51.1073 39.1199 50.9991 40.7739 50.5744 42.3597C50.1496 43.9456 49.4167 45.4322 48.4173 46.7348C47.4179 48.0373 46.1718 49.1303 44.7499 49.9512C43.3281 50.772 41.7586 51.3048 40.1308 51.519C38.5031 51.7332 36.8491 51.6246 35.2634 51.1995C33.6776 50.7745 32.1911 50.0411 30.8888 49.0415C29.5864 48.0418 28.4938 46.7954 27.6732 45.3734L21.1107 34.0068C20.6972 33.2891 20.5855 32.4366 20.8002 31.6365C21.0149 30.8365 21.5385 30.1544 22.2559 29.7403C22.9732 29.3261 23.8257 29.2137 24.6259 29.4277C25.4261 29.6418 26.1086 30.1648 26.5234 30.8818L29.9609 36.8358" stroke="#2B64F8" stroke-width="2" stroke-linecap="round" stroke-linejoin="round"/>
<path d="M28.671 53.5004C26.5523 52.0304 24.7862 50.1086 23.5 47.8735" stroke="#2B64F8" stroke-width="2" stroke-linecap="round" stroke-linejoin="round"/>
<path d="M43.5 20.8438C44.9262 20.8436 46.3273 21.219 47.5623 21.9323C48.7973 22.6455 49.8227 23.6715 50.5353 24.9069" stroke="#2B64F8" stroke-width="2" stroke-linecap="round" stroke-linejoin="round"/>
</svg>
