<svg width="72" height="72" viewBox="0 0 72 72" fill="none" xmlns="http://www.w3.org/2000/svg">
<path d="M36 72C55.8822 72 72 55.8822 72 36C72 16.1177 55.8822 0 36 0C16.1177 0 0 16.1177 0 36C0 55.8822 16.1177 72 36 72Z" fill="white"/>
<path d="M25.75 43.5H39.5" stroke="#2B64F8" stroke-width="2" stroke-linecap="round" stroke-linejoin="round"/>
<path d="M30.75 49.75V22.25H40.125C42.2799 22.25 44.3465 23.106 45.8702 24.6298C47.394 26.1535 48.25 28.2201 48.25 30.375C48.25 32.5299 47.394 34.5965 45.8702 36.1202C44.3465 37.644 42.2799 38.5 40.125 38.5H25.75" stroke="#2B64F8" stroke-width="2" stroke-linecap="round" stroke-linejoin="round"/>
</svg>
