<svg width="72" height="72" viewBox="0 0 72 72" fill="none" xmlns="http://www.w3.org/2000/svg">
<path d="M36 72C55.8822 72 72 55.8822 72 36C72 16.1177 55.8822 0 36 0C16.1177 0 0 16.1177 0 36C0 55.8822 16.1177 72 36 72Z" fill="#1D1D1D"/>
<path d="M44.75 44.75H26.9091L22.5503 20.7764C22.4979 20.4884 22.3461 20.2279 22.1213 20.0403C21.8966 19.8527 21.6132 19.75 21.3204 19.75H18.5" stroke="white" stroke-width="2" stroke-linecap="round" stroke-linejoin="round"/>
<path d="M28.5 51C30.2259 51 31.625 49.6009 31.625 47.875C31.625 46.1491 30.2259 44.75 28.5 44.75C26.7741 44.75 25.375 46.1491 25.375 47.875C25.375 49.6009 26.7741 51 28.5 51Z" stroke="white" stroke-width="2" stroke-linecap="round" stroke-linejoin="round"/>
<path d="M44.75 51C46.4759 51 47.875 49.6009 47.875 47.875C47.875 46.1491 46.4759 44.75 44.75 44.75C43.0241 44.75 41.625 46.1491 41.625 47.875C41.625 49.6009 43.0241 51 44.75 51Z" stroke="white" stroke-width="2" stroke-linecap="round" stroke-linejoin="round"/>
<path d="M25.7727 38.5H45.3908C45.9763 38.5 46.5432 38.2945 46.9927 37.9194C47.4422 37.5442 47.7458 37.0232 47.8505 36.4472L49.75 26H23.5" stroke="white" stroke-width="2" stroke-linecap="round" stroke-linejoin="round"/>
</svg>
