<svg width="72" height="72" viewBox="0 0 72 72" fill="none" xmlns="http://www.w3.org/2000/svg">
<path d="M36 72C55.8822 72 72 55.8822 72 36C72 16.1177 55.8822 0 36 0C16.1177 0 0 16.1177 0 36C0 55.8822 16.1177 72 36 72Z" fill="#1D1D1D"/>
<path d="M36 51C44.2843 51 51 44.2843 51 36C51 27.7157 44.2843 21 36 21C27.7157 21 21 27.7157 21 36C21 44.2843 27.7157 51 36 51Z" stroke="white" stroke-width="2" stroke-linecap="round" stroke-linejoin="round"/>
<path d="M30.375 34.75C31.4105 34.75 32.25 33.9105 32.25 32.875C32.25 31.8395 31.4105 31 30.375 31C29.3395 31 28.5 31.8395 28.5 32.875C28.5 33.9105 29.3395 34.75 30.375 34.75Z" fill="white"/>
<path d="M41.625 34.75C42.6605 34.75 43.5 33.9105 43.5 32.875C43.5 31.8395 42.6605 31 41.625 31C40.5895 31 39.75 31.8395 39.75 32.875C39.75 33.9105 40.5895 34.75 41.625 34.75Z" fill="white"/>
<path d="M42.4976 39.7495C41.8391 40.8898 40.892 41.8367 39.7516 42.495C38.6112 43.1533 37.3176 43.4999 36.0008 43.4999C34.684 43.4999 33.3904 43.1534 32.25 42.4951C31.1095 41.8368 30.1625 40.8899 29.5039 39.7496" stroke="white" stroke-width="2" stroke-linecap="round" stroke-linejoin="round"/>
</svg>
